<svg width="45" height="51" viewBox="0 0 45 51" fill="none" xmlns="http://www.w3.org/2000/svg">
<path fill-rule="evenodd" clip-rule="evenodd" d="M6.73259 0.363647C2.92985 0.363647 0.274261 3.79429 0.274261 7.46781V43.6345C0.274261 47.308 2.92985 50.7386 6.73259 50.7386H38.3784C42.1812 50.7386 44.8368 47.308 44.8368 43.6345V7.46781C44.8368 3.79429 42.1812 0.363647 38.3784 0.363647H6.73259ZM6.73259 4.23865C5.53981 4.23865 4.14926 5.43217 4.14926 7.46781V43.6345C4.14926 45.6701 5.53981 46.8636 6.73259 46.8636H38.3784C39.5712 46.8636 40.9618 45.6701 40.9618 43.6345V7.46781C40.9618 5.43217 39.5712 4.23865 38.3784 4.23865H6.73259Z" fill="white"/>
<path d="M11.2534 13.2803C10.1834 13.2803 9.31593 14.1478 9.31593 15.2178C9.31593 16.2879 10.1834 17.1553 11.2534 17.1553H33.8576C34.9276 17.1553 35.7951 16.2879 35.7951 15.2178C35.7951 14.1478 34.9276 13.2803 33.8576 13.2803H11.2534Z" fill="white"/>
<path d="M11.2534 23.6136C10.1834 23.6136 9.31593 24.4811 9.31593 25.5511C9.31593 26.6212 10.1834 27.4886 11.2534 27.4886H29.3368C30.4068 27.4886 31.2743 26.6212 31.2743 25.5511C31.2743 24.4811 30.4068 23.6136 29.3368 23.6136H11.2534Z" fill="white"/>
<path d="M11.2534 33.947C10.1834 33.947 9.31593 34.8144 9.31593 35.8845C9.31593 36.9545 10.1834 37.822 11.2534 37.822H15.7743C16.8443 37.822 17.7118 36.9545 17.7118 35.8845C17.7118 34.8144 16.8443 33.947 15.7743 33.947H11.2534Z" fill="white"/>
<path d="M37.5761 34.577C38.2808 33.7717 38.1992 32.5477 37.3939 31.843C36.5886 31.1384 35.3645 31.22 34.6599 32.0253L29.3368 38.1089L26.274 34.6086C25.5694 33.8033 24.3454 33.7217 23.5401 34.4264C22.7348 35.131 22.6532 36.355 23.3578 37.1603L27.8786 42.327C28.2466 42.7475 28.7781 42.9886 29.3368 42.9886C29.8955 42.9886 30.427 42.7475 30.7949 42.327L37.5761 34.577Z" fill="white"/>
</svg>
