<svg width="51" height="51" viewBox="0 0 51 51" fill="none" xmlns="http://www.w3.org/2000/svg">
<path fill-rule="evenodd" clip-rule="evenodd" d="M36.4748 29.4261C32.5502 29.4261 29.3707 32.6057 29.3707 36.5303V43.6345C29.3707 47.5591 32.5502 50.7386 36.4748 50.7386H43.579C47.5036 50.7386 50.6832 47.5591 50.6832 43.6345V36.5303C50.6832 32.6057 47.5036 29.4261 43.579 29.4261H36.4748ZM36.4748 33.3011C34.6903 33.3011 33.2457 34.7458 33.2457 36.5303V43.6345C33.2457 45.419 34.6903 46.8636 36.4748 46.8636H43.579C45.3635 46.8636 46.8082 45.419 46.8082 43.6345V36.5303C46.8082 34.7458 45.3635 33.3011 43.579 33.3011H36.4748Z" fill="white"/>
<path fill-rule="evenodd" clip-rule="evenodd" d="M7.41233 29.4261C3.4877 29.4261 0.308167 32.6057 0.308167 36.5303V43.6345C0.308167 47.5591 3.4877 50.7386 7.41233 50.7386H14.5165C18.4411 50.7386 21.6207 47.5591 21.6207 43.6345V36.5303C21.6207 32.6057 18.4411 29.4261 14.5165 29.4261H7.41233ZM7.41233 33.3011C5.6278 33.3011 4.18317 34.7458 4.18317 36.5303V43.6345C4.18317 45.419 5.6278 46.8636 7.41233 46.8636H14.5165C16.301 46.8636 17.7457 45.419 17.7457 43.6345V36.5303C17.7457 34.7458 16.301 33.3011 14.5165 33.3011H7.41233Z" fill="white"/>
<path fill-rule="evenodd" clip-rule="evenodd" d="M7.41233 0.363647C3.4877 0.363647 0.308167 3.54318 0.308167 7.46781V14.572C0.308167 18.4966 3.4877 21.6761 7.41233 21.6761H14.5165C18.4411 21.6761 21.6207 18.4966 21.6207 14.572V7.46781C21.6207 3.54318 18.4411 0.363647 14.5165 0.363647H7.41233ZM7.41233 4.23865C5.6278 4.23865 4.18317 5.68328 4.18317 7.46781V14.572C4.18317 16.3565 5.6278 17.8011 7.41233 17.8011H14.5165C16.301 17.8011 17.7457 16.3565 17.7457 14.572V7.46781C17.7457 5.68328 16.301 4.23865 14.5165 4.23865H7.41233Z" fill="white"/>
<path fill-rule="evenodd" clip-rule="evenodd" d="M36.4748 0.363647C32.5502 0.363647 29.3707 3.54318 29.3707 7.46781V14.572C29.3707 18.4966 32.5502 21.6761 36.4748 21.6761H43.579C47.5036 21.6761 50.6832 18.4966 50.6832 14.572V7.46781C50.6832 3.54318 47.5036 0.363647 43.579 0.363647H36.4748ZM36.4748 4.23865C34.6903 4.23865 33.2457 5.68328 33.2457 7.46781V14.572C33.2457 16.3565 34.6903 17.8011 36.4748 17.8011H43.579C45.3635 17.8011 46.8082 16.3565 46.8082 14.572V7.46781C46.8082 5.68328 45.3635 4.23865 43.579 4.23865H36.4748Z" fill="white"/>
</svg>
