<svg width="52" height="54" viewBox="0 0 52 54" fill="none" xmlns="http://www.w3.org/2000/svg">
<path d="M43.3083 38.0752L36.075 36.5252C35.5583 36.5252 35.0417 36.5252 34.7833 36.5252L33.75 32.3919C36.5917 30.0669 38.4 26.7086 38.4 22.8336V17.4086L40.9833 16.1169V18.1836C40.9833 19.2169 41.7583 20.2502 43.05 20.2502C44.3417 20.2502 45.1167 19.4752 45.1167 18.1836V11.2086C45.1167 9.40023 44.0833 7.85023 42.5333 7.07523L30.9083 1.3919C28.0667 -0.158099 24.7083 -0.158099 21.6083 1.3919L9.98333 7.07523C8.43333 7.85023 7.4 9.40023 7.4 11.2086C7.4 13.0169 8.43333 14.5669 9.98333 15.3419L13.8583 17.1502V22.8336C13.8583 26.7086 15.6667 30.0669 18.5083 32.3919L17.475 36.5252C16.9583 36.5252 16.4417 36.5252 15.925 36.5252L8.69167 38.0752C4.3 38.8502 0.941666 42.9836 0.941666 47.6336V51.2502C0.941666 52.2836 1.71667 53.3169 3.00833 53.3169C4.3 53.3169 5.075 52.5419 5.075 51.2502V47.3752C5.075 44.5336 7.14167 42.2086 9.725 41.6919L16.9583 40.1419H17.2167C17.475 40.1419 17.475 40.4002 17.7333 40.4002C17.7333 40.4002 17.9917 40.4002 17.9917 40.6586C20.0583 41.6919 22.125 42.4669 24.1917 42.7252V51.2502C24.1917 52.2836 24.9667 53.3169 26.2583 53.3169C27.55 53.3169 28.325 52.5419 28.325 51.2502V42.9836C30.3917 42.7252 32.7167 41.9502 34.525 40.9169C34.525 40.9169 34.7833 40.9169 34.7833 40.6586C35.0417 40.6586 35.0417 40.4002 35.3 40.4002H35.5583L42.7917 41.9502C45.375 42.4669 47.4417 44.7919 47.4417 47.6336V51.2502C47.4417 52.2836 48.2167 53.3169 49.5083 53.3169C50.8 53.3169 51.575 52.5419 51.575 51.2502V47.3752C51.3167 42.7252 47.9583 38.8502 43.3083 38.0752ZM11.5333 11.9836C11.275 11.7252 11.0167 11.4669 11.0167 11.2086C11.0167 10.9502 11.275 10.6919 11.5333 10.4336L23.1583 4.75023C24.1917 4.23357 24.9667 3.97523 26 3.97523C27.0333 3.97523 28.0667 4.23357 28.8417 4.75023L40.4667 10.4336C40.725 10.6919 40.9833 10.9502 40.9833 11.2086C40.9833 11.4669 40.725 11.7252 40.4667 11.9836L28.8417 17.6669C27.0333 18.4419 24.9667 18.4419 23.1583 17.6669L11.5333 11.9836ZM17.7333 19.2169L21.6083 21.0252C23.1583 21.8002 24.7083 22.0586 26.2583 22.0586C27.8083 22.0586 29.3583 21.8002 30.9083 21.0252L34.7833 19.2169V22.8336C34.7833 27.4836 30.9083 31.1002 26.5167 31.1002C22.125 31.1002 17.7333 27.4836 17.7333 22.8336V19.2169ZM26 35.2336C27.55 35.2336 28.8417 34.9752 30.1333 34.4586L31.1667 38.3336C29.6167 39.1086 27.8083 39.3669 26.2583 39.3669C24.45 39.3669 22.9 39.1086 21.35 38.3336L22.3833 34.4586C23.1583 34.7169 24.45 35.2336 26 35.2336Z" fill="white"/>
</svg>
